<?xml version="1.0" encoding="UTF-8"?>
<!-- Created with Grafika (https://www.grafika.cc/) -->
<svg xmlns="http://www.w3.org/2000/svg" xmlns:svg="http://www.w3.org/2000/svg" xmlns:xlink="http://www.w3.org/1999/xlink" width="108" height="108" viewBox="0 0 108 108" preserveAspectRatio="xMidYMid meet">
	<rect x="0" y="0" width="108" height="108" fill="none"/>
	<g opacity="1" transform="matrix(1, 0, 0, 1, 54, 54)">
		<path transform="matrix(2.2590038776397705, 0, 0, 2.4431188106536865, -35.349876403808594, 36.58769226074219)" d="M21.86,-30.97 C19.59,-30.97 17.44,-30.53 15.42,-29.66 C13.4,-28.79 11.63,-27.6 10.13,-26.09 C8.62,-24.58 7.42,-22.82 6.55,-20.81 C5.68,-18.8 5.24,-16.65 5.24,-14.35 C5.24,-13.2 5.35,-12.09 5.58,-11 L5.26,-11 L-0.26,-22.53 L-1.83,-25.82 L-7.18,-25.82 L-7.18,-22.53 L-3.89,-22.53 L2.04,-10.01 C2.59,-8.66 3.42,-7.89 4.51,-7.71 L11.02,-7.71 L37.17,-7.91 C38.04,-9.94 38.48,-12.08 38.48,-14.35 C38.48,-16.65 38.04,-18.8 37.17,-20.81 C36.3,-22.82 35.11,-24.58 33.6,-26.09 C32.09,-27.6 30.33,-28.79 28.32,-29.66 C26.31,-30.53 24.16,-30.97 21.86,-30.97 ZM21.86,-27.56 C22.58,-26.57 23.2,-25.53 23.73,-24.45 C24.25,-23.37 24.69,-22.22 25.02,-21 L18.7,-21 C19.04,-22.22 19.46,-23.37 19.99,-24.45 C20.52,-25.53 21.14,-26.57 21.86,-27.56 ZM17.54,-26.9 C17.04,-25.98 16.6,-25.04 16.23,-24.05 C15.86,-23.07 15.55,-22.05 15.3,-21 L10.39,-21 C11.2,-22.38 12.2,-23.59 13.41,-24.61 C14.61,-25.64 15.99,-26.4 17.54,-26.9 ZM26.18,-26.9 C27.73,-26.4 29.11,-25.64 30.31,-24.61 C31.52,-23.59 32.52,-22.38 33.33,-21 L28.42,-21 C28.17,-22.05 27.86,-23.07 27.49,-24.05 C27.11,-25.04 26.68,-25.98 26.18,-26.9 ZM8.98,-17.68 L14.63,-17.68 C14.55,-17.12 14.49,-16.58 14.45,-16.04 C14.4,-15.5 14.38,-14.93 14.38,-14.35 C14.38,-13.77 14.4,-13.21 14.45,-12.67 C14.49,-12.13 14.55,-11.58 14.63,-11.03 L8.98,-11.03 C8.84,-11.58 8.74,-12.13 8.67,-12.67 C8.6,-13.21 8.57,-13.77 8.57,-14.35 C8.57,-14.93 8.6,-15.5 8.67,-16.04 C8.74,-16.58 8.84,-17.12 8.98,-17.68 ZM17.96,-17.68 L25.77,-17.68 C25.85,-17.12 25.91,-16.58 25.95,-16.04 C25.99,-15.5 26.01,-14.93 26.01,-14.35 C26.01,-13.77 25.99,-13.21 25.95,-12.67 C25.91,-12.13 25.85,-11.58 25.77,-11.03 L17.96,-11.03 C17.87,-11.58 17.81,-12.13 17.77,-12.67 C17.73,-13.21 17.71,-13.77 17.71,-14.35 C17.71,-14.93 17.73,-15.5 17.77,-16.04 C17.81,-16.58 17.87,-17.12 17.96,-17.68 ZM29.09,-17.68 L34.74,-17.68 C34.88,-17.12 34.98,-16.58 35.05,-16.04 C35.12,-15.5 35.15,-14.93 35.15,-14.35 C35.15,-13.77 35.12,-13.21 35.05,-12.67 C34.98,-12.13 34.88,-11.58 34.74,-11.03 L29.09,-11.03 C29.17,-11.58 29.23,-12.13 29.28,-12.67 C29.32,-13.21 29.34,-13.77 29.34,-14.35 C29.34,-14.93 29.32,-15.5 29.28,-16.04 C29.23,-16.58 29.17,-17.12 29.09,-17.68 ZM12.8,1.02 Q11.3,1.02 10.24,-0.05 Q9.17,-1.11 9.17,-2.61 Q9.17,-4.1 10.24,-5.17 Q11.3,-6.23 12.8,-6.23 Q14.29,-6.23 15.36,-5.17 Q16.42,-4.1 16.42,-2.61 Q16.42,-1.11 15.36,-0.05 Q14.29,1.02 12.8,1.02 L12.8,1.02 ZM30.92,1.02 Q29.43,1.02 28.36,-0.05 Q27.3,-1.11 27.3,-2.61 Q27.3,-4.1 28.36,-5.17 Q29.43,-6.23 30.92,-6.23 Q32.42,-6.23 33.48,-5.17 Q34.55,-4.1 34.55,-2.61 Q34.55,-1.11 33.48,-0.05 Q32.42,1.02 30.92,1.02 L30.92,1.02 Z" opacity="1" style="fill:#11aaff;" />
	</g>
</svg>